# xmcd CD database file
#
# Track frame offsets:
#	150
#	18399
#	32450
#	50253
#	67213
#	89749
#	103225
#	123961
#	146633
#	164280
#	183426
#	207880
#	230162
#
# Disc length: 3359 seconds
#
# Revision: 0
# Processed by: cddbd v1.5.2PL0 Copyright (c) Steve Scherf et al.
# Submitted via: CDex 1.51
#
DISCID=bb0d1d0d
DTITLE=Heigeign - Huamweh
DYEAR=2006
DGENRE=Jazz
TTITLE0=Unsa Bruada Veidl
TTITLE1=Alsoori kisleany - Unterwarter Mädchen
TTITLE2=Sou noch un noch
TTITLE3=Maskar tumende - Zwischen Euch
TTITLE4=Wien
TTITLE5=Oj Jelena
TTITLE6=Mia traman
TTITLE7=Esti da!
TTITLE8=Wann d'Vögal im Wold
TTITLE9=Ziegentanz - Ples koze
TTITLE10=Curi tiho godinica
TTITLE11=Kraljice
TTITLE12=Huamweh
EXTD=YEAR: 2006
EXTT0=
EXTT1=
EXTT2=
EXTT3=
EXTT4=
EXTT5=
EXTT6=
EXTT7=
EXTT8=
EXTT9=
EXTT10=
EXTT11=
EXTT12=
PLAYORDER=
